<svg id="圖層_1" data-name="圖層 1" xmlns="http://www.w3.org/2000/svg" viewBox="0 0 1000 1000"><defs><style>.cls-1{fill:#fec52a;}</style></defs><title>工作區域 1</title><path class="cls-1" d="M910.2,293.61c-66.85,24.8-122.94,29.52-154.29-39C733.67,147.36,672.73,77.78,569.05,74.71c-54.29-1.61-142,33.1-211,28.18,4.81,51.9,10.6,78-1.92,116.3C322.53,322,368.84,447.38,535.86,494c-63.53,41.9-135.44,42.34-208.64,34.34-65.41-7.15-168.54-7.56-214.21-43.5,3.26,51.57-11.86,83.89-5,128.15,16.37,105,55.34,161.6,120,216.65,188,171.2,469.94,82,569.66-59.87,50.21-71.45,52.14-150.62-11.59-210.48C748.2,523.69,700.32,505,660.37,468.27l55.22-62.81C789.89,393.75,869.46,391.83,910.2,293.61ZM633.58,287a55.59,55.59,0,1,1,55.59-55.59A55.59,55.59,0,0,1,633.58,287Z"/></svg>