<svg id="圖層_1" data-name="圖層 1" xmlns="http://www.w3.org/2000/svg" viewBox="0 0 1000 1000"><defs><style>.cls-1{fill:#fec52a;}.cls-2{fill:#f4942a;}.cls-3{fill:#fff;}.cls-4{fill:#000333;}</style></defs><title>工作區域 1</title><path class="cls-1" d="M755.72,235.13c-22.85-110.2-85.46-181.68-192-184.84C508,48.63,417.81,84.3,347,79.25c4.93,53.32,10.88,80.17-2,119.48C310.47,304.38,358,433.17,529.64,481.1c-65.27,43-139.15,43.51-214.36,35.28-67.2-7.35-173.15-7.76-220.08-44.69,3.36,53-12.18,86.19-5.09,131.66,16.81,107.91,56.86,166,123.3,222.58,193.15,175.89,482.81,84.3,585.27-61.5,51.58-73.41,53.56-154.75-11.91-216.25-39-36.61-88.16-55.85-129.21-93.55l56.73-64.52c-12.24-20.91-24.45-41.84-33.16-56.77Z"/><path class="cls-2" d="M490.84,656.22c-25.47,37.21-68.21,24.08-124.09-3-10.37,32.83,1.31,74.93,32.26,103.12,56.09,51.07,140.2,24.48,170-17.86,15-21.32,7.12-58.27-18.61-73.71"/><path class="cls-2" d="M755.72,235.13l-74.59,98.21c8.71,14.93,20.92,35.86,33.16,56.77,76.34-12,158.09-14,200-114.92C845.56,300.67,787.92,305.52,755.72,235.13Z"/><circle class="cls-3" cx="630.04" cy="211.3" r="57.11"/><circle class="cls-4" cx="648.16" cy="236.62" r="26.74"/></svg>