<svg id="圖層_1" data-name="圖層 1" xmlns="http://www.w3.org/2000/svg" viewBox="0 0 1000 209.3"><defs><style>.cls-1{fill:#3f3f3f;}.cls-2{fill:#fec52a;}.cls-3{fill:#3e3e3e;}.cls-4{fill:#404040;}.cls-5{fill:#343b43;}.cls-6{fill:#fefdfd;}</style></defs><title>工作區域 1</title><path class="cls-1" d="M481.64,48.54c-9.79,37.24-19.48,74.11-29.17,111H436.62c-8.47-30.45-16.94-60.86-25.62-92-8.71,31.11-17.23,61.5-25.76,92H369.37q-14.44-55.28-29-110.78h16.33l20.64,89,.55.11,24.82-89.24c5,0,10-.09,14.94.1.7,0,1.73,1.32,2,2.2q9.4,33.38,18.65,66.78c1.84,6.62,3.69,13.24,6.18,19.88q1.9-8.16,3.82-16.32c5.43-23.37,10.9-46.74,16.22-70.14.49-2.14,1.33-2.61,3.31-2.55C472.31,48.63,476.79,48.54,481.64,48.54Z"/><path class="cls-2" d="M331.59,99.5c-.32,17.52-3.37,31.43-12.45,43.53-8.93,11.9-21,18.13-35.64,19.46-10.13.91-20.14.23-29.64-3.76-14.32-6-23.28-16.95-27.46-31.63-6-21.14-4.77-41.62,7.59-60.47,8.78-13.4,21.68-19.83,37.44-20.88,10-.67,20,0,29.39,3.77,16.24,6.55,25.21,19.2,28.85,35.87C330.87,90.9,331.21,96.59,331.59,99.5Zm-26.52,37.78.66-.89c8.82-6.12,12.22-14.33,9.57-24.86.13-5.36.7-10.75.29-16.07-.74-9.67-4-18.49-10.8-25.71-8.42-9-19.09-11.44-31-10.62a35.78,35.78,0,0,0-31.89,24.61,65.65,65.65,0,0,0-1.2,37.56c3,11.06,8.43,20.71,19.85,24.86a60.52,60.52,0,0,0,17.15,3.09c7.91.44,15.64-1.1,22.1-6.18,2-1.6,3.53-3.92,5.26-5.91Z"/><path class="cls-3" d="M539.38,159.61V48.81a4.09,4.09,0,0,1,.89-.25q22.59,0,45.17,0c24.24,0,38.59,15.66,43.43,35.16a75.64,75.64,0,0,1-4.39,50.41c-6.72,15-18.1,24-34.66,25-11.5.72-23.06.36-34.59.45C550.05,159.64,544.87,159.61,539.38,159.61Zm15.25-98.46v85.5c9.94,0,19.7.1,29.45,0,12.74-.17,21.78-6.24,26.75-17.91,6.78-15.93,6.59-32.17.79-48.27-3.65-10.11-11-17-21.82-18.07C578.19,61.25,566.45,61.5,554.63,61.15Z"/><path class="cls-1" d="M120.3,80.92H106.38c-.25-1.12-.51-2.15-.69-3.19-1.82-10.12-7.82-16.16-17.87-18-8.47-1.53-16.93-1.84-25,1.89C56.53,64.55,52.4,72.11,53.17,79c.58,5.24,3.14,9.25,8.17,10.78,9.22,2.81,18.59,5.14,27.91,7.63,4.33,1.16,8.74,2,13,3.33,19.55,5.85,24.15,21.74,20.1,38a25.57,25.57,0,0,1-14.18,17.36c-16.51,8-33.61,9.32-50.84,2.85a34.16,34.16,0,0,1-22-35H48.93c.51,2.62.86,5.22,1.54,7.72,2.48,9.11,8.4,14.84,17.55,17,10.12,2.38,20.18,2.17,29.88-1.92,9.46-4,13.22-12.59,10.11-22.33a12.31,12.31,0,0,0-8.14-8.24c-7.3-2.4-14.74-4.4-22.16-6.42-6.4-1.75-12.9-3.12-19.26-5C40.09,99.38,35.74,84.68,40.39,69.36c4.13-13.63,14.29-20.59,27.82-22.79,11-1.79,21.79-1,32.23,3.3C113.84,55.43,120.75,66,120.3,80.92Z"/><path class="cls-3" d="M965.12,159.6c-6.57,0-12.51.09-18.44-.09-.87,0-1.93-1.09-2.53-1.94q-17.74-25.32-35.4-50.7c-.61-.88-1.25-1.74-2.13-3-2.74,2.62-5.4,5.15-8,7.7-3.17,3.05-7.56,5.6-9.13,9.32s-.5,8.84-.52,13.32c0,8.12,0,16.24,0,24.35a5.62,5.62,0,0,1-.12.79H874.43V48.67h14.38v53.84c1.23-1.15,2-1.82,2.71-2.54q24.69-24.68,49.34-49.39A6.34,6.34,0,0,1,946,48.49c5.66.13,11.33,0,17.79,0L917.63,93.28C933.37,115.25,949,137.15,965.12,159.6Z"/><path class="cls-1" d="M651.47,48.63h15.31v3.23c0,21.61-.07,43.21.07,64.82a57,57,0,0,0,1.49,12.75c3.16,13.29,12.52,20.5,26.17,19.82a44.32,44.32,0,0,0,15-3.06c10-4.27,13.51-13.24,13.86-23.32.47-13.87.26-27.76.31-41.64,0-10.74,0-21.49,0-32.48h15.07a3.63,3.63,0,0,1,.25,1c-.09,23.37,0,46.73-.41,70.09a63.49,63.49,0,0,1-3,17c-3.81,12.67-12.44,20.69-25.31,24a60.77,60.77,0,0,1-28.47.45c-16-3.54-26.26-14.55-28.72-30.9a145.83,145.83,0,0,1-1.63-20.13c-.21-19.35-.08-38.71-.08-58.06Z"/><path class="cls-1" d="M854.72,81.86c-4.48,0-8.78.1-13.06-.1-.71,0-1.71-1.29-2-2.16-3.11-9.46-8.58-16.86-18.57-19.46-21.06-5.5-40.66,3.26-46.17,25.92a73.59,73.59,0,0,0,.24,37.68c6.2,22.24,31.36,32.82,50.4,21.19,8.81-5.37,12.66-14.08,15.07-23.53.57-2.22,1.33-2.82,3.45-2.73,3.79.15,7.59,0,11.74,0a47.56,47.56,0,0,1-6,19.87c-9.92,17.48-25.45,24.49-45,23.81-24-.83-41.64-16.57-46-42.67-2.21-13.08-2.07-26.06,1.75-38.88,6.21-20.87,23.38-34.41,45.09-35.08a82.35,82.35,0,0,1,17.74,1.31C839.87,50.2,853.44,65.35,854.72,81.86Z"/><path class="cls-4" d="M157.84,146.46H214V159.4H142.8V48.71h15Z"/><path class="cls-5" d="M305.09,137.16c-3.66.63-7.31,1.75-11,1.82-10.94.2-20.14-9.25-20.5-20.62-.34-10.8,8.43-20.74,19-21.57s18.3,4.21,22.66,14.73c2.65,10.54-.75,18.75-9.57,24.87l-.66.89Z"/><path class="cls-6" d="M305.07,137.28l.66-.89Z"/></svg>